<svg width="279" height="279" viewBox="0 0 279 279" fill="none" xmlns="http://www.w3.org/2000/svg">
<rect width="279" height="279" rx="139.5" fill="url(#paint0_linear_388_2)"/>
<path d="M138.4 213C125.6 213 113.933 211.533 103.4 208.6C93 205.533 84 201 76.4 195C68.9333 189 63.1333 181.467 59 172.4C55 163.2 53 152.4 53 140C53 129.333 55.2 119.6 59.6 110.8C64.1333 101.867 70.4667 94.1333 78.6 87.6C86.7333 81.0667 96.4 76 107.6 72.4C118.933 68.8 131.4 67 145 67C156.067 67 166.067 68.1333 175 70.4C183.933 72.6667 191.8 75.5333 198.6 79C205.4 82.3333 211 85.8667 215.4 89.6L189.8 118C186.333 115.6 182.4 113.333 178 111.2C173.6 109.067 168.6 107.333 163 106C157.533 104.533 151.333 103.8 144.4 103.8C137.867 103.8 131.8 104.733 126.2 106.6C120.6 108.333 115.733 110.8 111.6 114C107.467 117.2 104.2 121.067 101.8 125.6C99.5333 130 98.4 134.8 98.4 140C98.4 147.2 99.6 153.133 102 157.8C104.533 162.467 107.933 166.133 112.2 168.8C116.467 171.467 121.333 173.4 126.8 174.6C132.267 175.667 138 176.2 144 176.2C150.267 176.2 156 175.667 161.2 174.6C166.4 173.4 170.867 171.8 174.6 169.8C178.467 167.8 181.4 165.333 183.4 162.4C185.533 159.467 186.6 156.2 186.6 152.6V148.2L192.4 159.4H139.8V129.4H226.6C226.733 131.4 226.867 134 227 137.2C227.133 140.267 227.2 143.133 227.2 145.8C227.333 148.333 227.4 149.867 227.4 150.4C227.4 160.8 225.267 169.933 221 177.8C216.867 185.533 210.867 192 203 197.2C195.267 202.4 185.933 206.333 175 209C164.067 211.667 151.867 213 138.4 213Z" fill="white"/>
<defs>
<linearGradient id="paint0_linear_388_2" x1="140" y1="2.79159e-06" x2="140" y2="279" gradientUnits="userSpaceOnUse">
<stop stop-color="#FF5B00"/>
<stop offset="1" stop-color="#FC6900"/>
</linearGradient>
</defs>
</svg>
